ffmpeg started on 2025-07-09 at 15:09:34
Report written to "D:\Convert\FFMetrics\reports\ssim_report-6.txt"
Log level: 32
Command line:
ffmpeg -hide_banner -nostdin -i "G:\\\xc0\xed\xe8\xec\xe5\\[\xd4\xe8\xeb\xfc\xec\xfb]\\[\xd4\xe8\xeb\xfc\xec] \xce\xf1\xea\xee\xeb\xea\xe8 \xe2\xf0\xe5\xec\xe5\xed\xe8\\[SHIZA Project] Fragtime MOVIE [MVO]_HEVC.mkv" -i "G:\\\xc0\xed\xe8\xec\xe5\\[\xd4\xe8\xeb\xfc\xec\xfb]\\[\xd4\xe8\xeb\xfc\xec] \xce\xf1\xea\xee\xeb\xea\xe8 \xe2\xf0\xe5\xec\xe5\xed\xe8\\[SHIZA Project] Fragtime MOVIE [MVO].mkv" -lavfi "[0:v]settb=AVTB,setpts=PTS-STARTPTS,format=pix_fmts=yuv420p10,fps=24000/1001,scale=1920:1080:flags=bicubic[main];[1:v]settb=AVTB,setpts=PTS-STARTPTS,format=pix_fmts=yuv420p10,fps=24000/1001,scale=1920:1080:flags=bicubic[ref];[main][ref]ssim=eof_action=endall:stats_file='D\\:/Convert/FFMetrics/logs/ssim_logfile-6.txt'" -f null -
Input #0, matroska,webm, from 'G:\Аниме\[Фильмы]\[Фильм] Осколки времени\[SHIZA Project] Fragtime MOVIE [MVO]_HEVC.mkv':
  Metadata:
    ENCODER         : Lavf61.7.100
  Duration: 01:00:06.62, start: -0.021000, bitrate: 611 kb/s
  Stream #0:0(jpn): Video: hevc (Main 10), yuv420p10le(tv, bt709, progressive), 1920x1080 [SAR 1:1 DAR 16:9], 23.98 fps, 23.98 tbr, 1k tbn (default)
      Metadata:
        ENCODER         : Lavc61.19.100 libx265
        BPS             : 413408
        DURATION        : 01:00:06.602708333
        NUMBER_OF_FRAMES: 86472
        NUMBER_OF_BYTES : 186375155
        _STATISTICS_WRITING_APP: mkvpropedit v66.0.0 ('Josie') 64-bit
        _STATISTICS_WRITING_DATE_UTC: 2025-07-08 12:07:07
        _STATISTICS_TAGS: BPS DURATION NUMBER_OF_FRAMES NUMBER_OF_BYTES
  Stream #0:1(rus): Audio: aac (LC), 48000 Hz, stereo, fltp (default) (forced)
      Metadata:
        title           : SHIZA Project MVO
        ENCODER         : Lavc61.19.100 aac
        BPS             : 194422
        DURATION        : 01:00:06.613000000
        NUMBER_OF_FRAMES: 169061
        NUMBER_OF_BYTES : 87651060
        _STATISTICS_WRITING_APP: mkvpropedit v66.0.0 ('Josie') 64-bit
        _STATISTICS_WRITING_DATE_UTC: 2025-07-08 12:07:07
        _STATISTICS_TAGS: BPS DURATION NUMBER_OF_FRAMES NUMBER_OF_BYTES
  Stream #0:2(rus): Subtitle: ass (ssa) (default) (forced)
      Metadata:
        BPS             : 12
        DURATION        : 00:48:01.460000000
        NUMBER_OF_FRAMES: 40
        NUMBER_OF_BYTES : 4450
        _STATISTICS_WRITING_APP: mkvpropedit v66.0.0 ('Josie') 64-bit
        _STATISTICS_WRITING_DATE_UTC: 2025-07-08 12:07:07
        _STATISTICS_TAGS: BPS DURATION NUMBER_OF_FRAMES NUMBER_OF_BYTES
Input #1, matroska,webm, from 'G:\Аниме\[Фильмы]\[Фильм] Осколки времени\[SHIZA Project] Fragtime MOVIE [MVO].mkv':
  Metadata:
    encoder         : libebml v1.3.7 + libmatroska v1.5.0
    creation_time   : 2020-08-15T11:51:40.000000Z
  Duration: 01:00:06.60, start: 0.000000, bitrate: 5394 kb/s
  Stream #1:0(jpn): Video: hevc (Main 10), yuv420p10le(tv, bt709), 1920x1080 [SAR 1:1 DAR 16:9], 23.98 fps, 23.98 tbr, 1k tbn (default)
      Metadata:
        BPS-eng         : 4009348
        DURATION-eng    : 01:00:06.603000000
        NUMBER_OF_FRAMES-eng: 86472
        NUMBER_OF_BYTES-eng: 1807516041
        _STATISTICS_WRITING_APP-eng: mkvmerge v34.0.0 ('Sight and Seen') 64-bit
        _STATISTICS_WRITING_DATE_UTC-eng: 2020-08-15 11:51:40
        _STATISTICS_TAGS-eng: BPS DURATION NUMBER_OF_FRAMES NUMBER_OF_BYTES
  Stream #1:1(rus): Audio: flac, 48000 Hz, stereo, s32 (24 bit) (default) (forced)
      Metadata:
        title           : SHIZA Project MVO
        BPS-eng         : 1382992
        DURATION-eng    : 01:00:06.603000000
        NUMBER_OF_FRAMES-eng: 37569
        NUMBER_OF_BYTES-eng: 623488053
        _STATISTICS_WRITING_APP-eng: mkvmerge v34.0.0 ('Sight and Seen') 64-bit
        _STATISTICS_WRITING_DATE_UTC-eng: 2020-08-15 11:51:40
        _STATISTICS_TAGS-eng: BPS DURATION NUMBER_OF_FRAMES NUMBER_OF_BYTES
  Stream #1:2(rus): Subtitle: ass (ssa) (default) (forced)
      Metadata:
        BPS-eng         : 12
        DURATION-eng    : 00:48:01.460000000
        NUMBER_OF_FRAMES-eng: 40
        NUMBER_OF_BYTES-eng: 4450
        _STATISTICS_WRITING_APP-eng: mkvmerge v34.0.0 ('Sight and Seen') 64-bit
        _STATISTICS_WRITING_DATE_UTC-eng: 2020-08-15 11:51:40
        _STATISTICS_TAGS-eng: BPS DURATION NUMBER_OF_FRAMES NUMBER_OF_BYTES
Stream mapping:
  Stream #0:0 (hevc) -> settb:default
  Stream #1:0 (hevc) -> settb:default
  ssim:default -> Stream #0:0 (wrapped_avframe)
  Stream #0:1 -> #0:1 (aac (native) -> pcm_s16le (native))
Output #0, null, to 'pipe:':
  Metadata:
    encoder         : Lavf61.7.100
  Stream #0:0: Video: wrapped_avframe, yuv420p10le(tv, bt709, progressive), 1920x1080 [SAR 1:1 DAR 16:9], q=2-31, 200 kb/s, 23.98 fps, 23.98 tbn
      Metadata:
        encoder         : Lavc61.19.100 wrapped_avframe
  Stream #0:1(rus): Audio: pcm_s16le, 48000 Hz, stereo, s16, 1536 kb/s (default) (forced)
      Metadata:
        title           : SHIZA Project MVO
        _STATISTICS_TAGS: BPS DURATION NUMBER_OF_FRAMES NUMBER_OF_BYTES
        BPS             : 194422
        DURATION        : 01:00:06.613000000
        NUMBER_OF_FRAMES: 169061
        NUMBER_OF_BYTES : 87651060
        _STATISTICS_WRITING_APP: mkvpropedit v66.0.0 ('Josie') 64-bit
        _STATISTICS_WRITING_DATE_UTC: 2025-07-08 12:07:07
        encoder         : Lavc61.19.100 pcm_s16le
frame=  241 fps=0.0 q=-0.0 size=N/A time=00:00:10.05 bitrate=N/A speed=19.4x    frame=  508 fps=494 q=-0.0 size=N/A time=00:00:21.18 bitrate=N/A speed=20.6x    frame=  759 fps=493 q=-0.0 size=N/A time=00:00:31.65 bitrate=N/A speed=20.6x    frame=  977 fps=473 q=-0.0 size=N/A time=00:00:40.74 bitrate=N/A speed=19.7x    frame= 1209 fps=466 q=-0.0 size=N/A time=00:00:50.42 bitrate=N/A speed=19.5x    frame= 1427 fps=460 q=-0.0 size=N/A time=00:00:59.51 bitrate=N/A speed=19.2x    frame= 1659 fps=458 q=-0.0 size=N/A time=00:01:09.19 bitrate=N/A speed=19.1x    frame= 1846 fps=447 q=-0.0 size=N/A time=00:01:16.99 bitrate=N/A speed=18.6x    frame= 2064 fps=444 q=-0.0 size=N/A time=00:01:26.08 bitrate=N/A speed=18.5x    frame= 2298 fps=444 q=-0.0 size=N/A time=00:01:35.84 bitrate=N/A speed=18.5x    frame= 2552 fps=449 q=-0.0 size=N/A time=00:01:46.43 bitrate=N/A speed=18.7x    frame= 2788 fps=450 q=-0.0 size=N/A time=00:01:56.28 bitrate=N/A speed=18.8x    frame= 3026 fps=450 q=-0.0 size=N/A time=00:02:06.20 bitrate=N/A speed=18.8x    frame= 3269 fps=452 q=-0.0 size=N/A time=00:02:16.34 bitrate=N/A speed=18.9x    frame= 3532 fps=456 q=-0.0 size=N/A time=00:02:27.31 bitrate=N/A speed=  19x    frame= 3775 fps=457 q=-0.0 size=N/A time=00:02:37.44 bitrate=N/A speed=  19x    frame= 3974 fps=453 q=-0.0 size=N/A time=00:02:45.74 bitrate=N/A speed=18.9x    frame= 4123 fps=444 q=-0.0 size=N/A time=00:02:51.96 bitrate=N/A speed=18.5x    frame= 4279 fps=436 q=-0.0 size=N/A time=00:02:58.46 bitrate=N/A speed=18.2x    frame= 4400 fps=426 q=-0.0 size=N/A time=00:03:03.51 bitrate=N/A speed=17.8x    frame= 4536 fps=419 q=-0.0 size=N/A time=00:03:09.18 bitrate=N/A speed=17.5x    frame= 4676 fps=412 q=-0.0 size=N/A time=00:03:15.02 bitrate=N/A speed=17.2x    frame= 4807 fps=405 q=-0.0 size=N/A time=00:03:20.49 bitrate=N/A speed=16.9x    frame= 4948 fps=400 q=-0.0 size=N/A time=00:03:26.37 bitrate=N/A speed=16.7x    frame= 5122 fps=397 q=-0.0 size=N/A time=00:03:33.63 bitrate=N/A speed=16.6x    frame= 5327 fps=397 q=-0.0 size=N/A time=00:03:42.18 bitrate=N/A speed=16.6x    frame= 5589 fps=401 q=-0.0 size=N/A time=00:03:53.10 bitrate=N/A speed=16.7x    frame= 5849 fps=405 q=-0.0 size=N/A time=00:04:03.95 bitrate=N/A speed=16.9x    frame= 6074 fps=406 q=-0.0 size=N/A time=00:04:13.33 bitrate=N/A speed=16.9x    frame= 6316 fps=408 q=-0.0 size=N/A time=00:04:23.42 bitrate=N/A speed=  17x    frame= 6543 fps=409 q=-0.0 size=N/A time=00:04:32.89 bitrate=N/A speed=  17x    frame= 6746 fps=408 q=-0.0 size=N/A time=00:04:41.36 bitrate=N/A speed=  17x    frame= 6975 fps=409 q=-0.0 size=N/A time=00:04:50.91 bitrate=N/A speed=17.1x    frame= 7217 fps=411 q=-0.0 size=N/A time=00:05:01.00 bitrate=N/A speed=17.1x    frame= 7452 fps=412 q=-0.0 size=N/A time=00:05:10.81 bitrate=N/A speed=17.2x    frame= 7713 fps=415 q=-0.0 size=N/A time=00:05:21.69 bitrate=N/A speed=17.3x    frame= 7956 fps=416 q=-0.0 size=N/A time=00:05:31.83 bitrate=N/A speed=17.4x    frame= 8176 fps=417 q=-0.0 size=N/A time=00:05:41.00 bitrate=N/A speed=17.4x    frame= 8418 fps=418 q=-0.0 size=N/A time=00:05:51.10 bitrate=N/A speed=17.4x    frame= 8655 fps=419 q=-0.0 size=N/A time=00:06:00.98 bitrate=N/A speed=17.5x    frame= 8890 fps=420 q=-0.0 size=N/A time=00:06:10.78 bitrate=N/A speed=17.5x    frame= 9125 fps=421 q=-0.0 size=N/A time=00:06:20.58 bitrate=N/A speed=17.6x    frame= 9350 fps=421 q=-0.0 size=N/A time=00:06:29.97 bitrate=N/A speed=17.6x    frame= 9577 fps=422 q=-0.0 size=N/A time=00:06:39.44 bitrate=N/A speed=17.6x    frame= 9798 fps=422 q=-0.0 size=N/A time=00:06:48.65 bitrate=N/A speed=17.6x    frame=10020 fps=422 q=-0.0 size=N/A time=00:06:57.91 bitrate=N/A speed=17.6x    frame=10280 fps=424 q=-0.0 size=N/A time=00:07:08.76 bitrate=N/A speed=17.7x    frame=10544 fps=426 q=-0.0 size=N/A time=00:07:19.77 bitrate=N/A speed=17.7x    frame=10791 fps=427 q=-0.0 size=N/A time=00:07:30.07 bitrate=N/A speed=17.8x    frame=11030 fps=427 q=-0.0 size=N/A time=00:07:40.04 bitrate=N/A speed=17.8x    frame=11260 fps=427 q=-0.0 size=N/A time=00:07:49.63 bitrate=N/A speed=17.8x    frame=11510 fps=429 q=-0.0 size=N/A time=00:08:00.06 bitrate=N/A speed=17.9x    frame=11745 fps=429 q=-0.0 size=N/A time=00:08:09.86 bitrate=N/A speed=17.9x    frame=11976 fps=429 q=-0.0 size=N/A time=00:08:19.49 bitrate=N/A speed=17.9x    frame=12226 fps=430 q=-0.0 size=N/A time=00:08:29.92 bitrate=N/A speed=  18x    frame=12460 fps=431 q=-0.0 size=N/A time=00:08:39.68 bitrate=N/A speed=  18x    frame=12706 fps=432 q=-0.0 size=N/A time=00:08:49.94 bitrate=N/A speed=  18x    frame=12946 fps=432 q=-0.0 size=N/A time=00:08:59.95 bitrate=N/A speed=  18x    frame=13160 fps=432 q=-0.0 size=N/A time=00:09:08.88 bitrate=N/A speed=  18x    frame=13413 fps=433 q=-0.0 size=N/A time=00:09:19.43 bitrate=N/A speed=18.1x    frame=13653 fps=434 q=-0.0 size=N/A time=00:09:29.44 bitrate=N/A speed=18.1x    frame=13883 fps=434 q=-0.0 size=N/A time=00:09:39.03 bitrate=N/A speed=18.1x    frame=14131 fps=434 q=-0.0 size=N/A time=00:09:49.38 bitrate=N/A speed=18.1x    frame=14365 fps=435 q=-0.0 size=N/A time=00:09:59.14 bitrate=N/A speed=18.1x    frame=14587 fps=435 q=-0.0 size=N/A time=00:10:08.39 bitrate=N/A speed=18.1x    frame=14820 fps=435 q=-0.0 size=N/A time=00:10:18.11 bitrate=N/A speed=18.1x    frame=15072 fps=436 q=-0.0 size=N/A time=00:10:28.62 bitrate=N/A speed=18.2x    frame=15303 fps=436 q=-0.0 size=N/A time=00:10:38.26 bitrate=N/A speed=18.2x    frame=15538 fps=436 q=-0.0 size=N/A time=00:10:48.06 bitrate=N/A speed=18.2x    frame=15770 fps=436 q=-0.0 size=N/A time=00:10:57.74 bitrate=N/A speed=18.2x    frame=16015 fps=437 q=-0.0 size=N/A time=00:11:07.95 bitrate=N/A speed=18.2x    frame=16266 fps=438 q=-0.0 size=N/A time=00:11:18.42 bitrate=N/A speed=18.3x    frame=16505 fps=438 q=-0.0 size=N/A time=00:11:28.39 bitrate=N/A speed=18.3x    frame=16731 fps=438 q=-0.0 size=N/A time=00:11:37.82 bitrate=N/A speed=18.3x    frame=16927 fps=437 q=-0.0 size=N/A time=00:11:45.99 bitrate=N/A speed=18.2x    frame=17130 fps=437 q=-0.0 size=N/A time=00:11:54.46 bitrate=N/A speed=18.2x    frame=17386 fps=437 q=-0.0 size=N/A time=00:12:05.14 bitrate=N/A speed=18.2x    frame=17618 fps=438 q=-0.0 size=N/A time=00:12:14.81 bitrate=N/A speed=18.3x    frame=17870 fps=438 q=-0.0 size=N/A time=00:12:25.32 bitrate=N/A speed=18.3x    frame=18149 fps=439 q=-0.0 size=N/A time=00:12:36.96 bitrate=N/A speed=18.3x    frame=18382 fps=440 q=-0.0 size=N/A time=00:12:46.68 bitrate=N/A speed=18.3x    frame=18569 fps=439 q=-0.0 size=N/A time=00:12:54.48 bitrate=N/A speed=18.3x    frame=18821 fps=439 q=-0.0 size=N/A time=00:13:04.99 bitrate=N/A speed=18.3x    frame=19061 fps=440 q=-0.0 size=N/A time=00:13:15.00 bitrate=N/A speed=18.3x    frame=19304 fps=440 q=-0.0 size=N/A time=00:13:25.13 bitrate=N/A speed=18.4x    frame=19496 fps=439 q=-0.0 size=N/A time=00:13:33.14 bitrate=N/A speed=18.3x    frame=19703 fps=439 q=-0.0 size=N/A time=00:13:41.77 bitrate=N/A speed=18.3x    frame=19925 fps=439 q=-0.0 size=N/A time=00:13:51.03 bitrate=N/A speed=18.3x    frame=20134 fps=438 q=-0.0 size=N/A time=00:13:59.75 bitrate=N/A speed=18.3x    frame=20351 fps=438 q=-0.0 size=N/A time=00:14:08.80 bitrate=N/A speed=18.3x    frame=20563 fps=438 q=-0.0 size=N/A time=00:14:17.64 bitrate=N/A speed=18.3x    frame=20803 fps=438 q=-0.0 size=N/A time=00:14:27.65 bitrate=N/A speed=18.3x    frame=21025 fps=438 q=-0.0 size=N/A time=00:14:36.91 bitrate=N/A speed=18.3x    frame=21265 fps=438 q=-0.0 size=N/A time=00:14:46.92 bitrate=N/A speed=18.3x    frame=21498 fps=438 q=-0.0 size=N/A time=00:14:56.64 bitrate=N/A speed=18.3x    frame=21728 fps=439 q=-0.0 size=N/A time=00:15:06.23 bitrate=N/A speed=18.3x    frame=21989 fps=439 q=-0.0 size=N/A time=00:15:17.12 bitrate=N/A speed=18.3x    frame=22233 fps=440 q=-0.0 size=N/A time=00:15:27.30 bitrate=N/A speed=18.3x    frame=22470 fps=440 q=-0.0 size=N/A time=00:15:37.18 bitrate=N/A speed=18.3x    frame=22707 fps=440 q=-0.0 size=N/A time=00:15:47.07 bitrate=N/A speed=18.4x    frame=22948 fps=440 q=-0.0 size=N/A time=00:15:57.12 bitrate=N/A speed=18.4x    frame=23184 fps=440 q=-0.0 size=N/A time=00:16:06.96 bitrate=N/A speed=18.4x    frame=23429 fps=441 q=-0.0 size=N/A time=00:16:17.18 bitrate=N/A speed=18.4x    frame=23643 fps=441 q=-0.0 size=N/A time=00:16:26.11 bitrate=N/A speed=18.4x    frame=23882 fps=441 q=-0.0 size=N/A time=00:16:36.07 bitrate=N/A speed=18.4x    frame=24116 fps=441 q=-0.0 size=N/A time=00:16:45.83 bitrate=N/A speed=18.4x    frame=24315 fps=440 q=-0.0 size=N/A time=00:16:54.13 bitrate=N/A speed=18.4x    frame=24533 fps=440 q=-0.0 size=N/A time=00:17:03.23 bitrate=N/A speed=18.4x    frame=24690 fps=439 q=-0.0 size=N/A time=00:17:09.77 bitrate=N/A speed=18.3x    frame=24901 fps=439 q=-0.0 size=N/A time=00:17:18.57 bitrate=N/A speed=18.3x    frame=25117 fps=439 q=-0.0 size=N/A time=00:17:27.58 bitrate=N/A speed=18.3x    frame=25347 fps=439 q=-0.0 size=N/A time=00:17:37.18 bitrate=N/A speed=18.3x    frame=25590 fps=439 q=-0.0 size=N/A time=00:17:47.31 bitrate=N/A speed=18.3x    frame=25832 fps=439 q=-0.0 size=N/A time=00:17:57.40 bitrate=N/A speed=18.3x    frame=26083 fps=440 q=-0.0 size=N/A time=00:18:07.87 bitrate=N/A speed=18.3x    frame=26329 fps=440 q=-0.0 size=N/A time=00:18:18.13 bitrate=N/A speed=18.3x    frame=26582 fps=440 q=-0.0 size=N/A time=00:18:28.69 bitrate=N/A speed=18.4x    frame=26845 fps=441 q=-0.0 size=N/A time=00:18:39.66 bitrate=N/A speed=18.4x    frame=27090 fps=441 q=-0.0 size=N/A time=00:18:49.87 bitrate=N/A speed=18.4x    frame=27338 fps=442 q=-0.0 size=N/A time=00:19:00.22 bitrate=N/A speed=18.4x    frame=27574 fps=442 q=-0.0 size=N/A time=00:19:10.06 bitrate=N/A speed=18.4x    frame=27815 fps=442 q=-0.0 size=N/A time=00:19:20.11 bitrate=N/A speed=18.4x    frame=28063 fps=442 q=-0.0 size=N/A time=00:19:30.46 bitrate=N/A speed=18.4x    frame=28319 fps=443 q=-0.0 size=N/A time=00:19:41.13 bitrate=N/A speed=18.5x    frame=28553 fps=443 q=-0.0 size=N/A time=00:19:50.89 bitrate=N/A speed=18.5x    frame=28796 fps=443 q=-0.0 size=N/A time=00:20:01.03 bitrate=N/A speed=18.5x    frame=29024 fps=443 q=-0.0 size=N/A time=00:20:10.54 bitrate=N/A speed=18.5x    frame=29223 fps=442 q=-0.0 size=N/A time=00:20:18.84 bitrate=N/A speed=18.5x    frame=29470 fps=443 q=-0.0 size=N/A time=00:20:29.14 bitrate=N/A speed=18.5x    frame=29684 fps=443 q=-0.0 size=N/A time=00:20:38.07 bitrate=N/A speed=18.5x    frame=29928 fps=443 q=-0.0 size=N/A time=00:20:48.24 bitrate=N/A speed=18.5x    frame=30175 fps=443 q=-0.0 size=N/A time=00:20:58.54 bitrate=N/A speed=18.5x    frame=30425 fps=443 q=-0.0 size=N/A time=00:21:08.97 bitrate=N/A speed=18.5x    frame=30669 fps=444 q=-0.0 size=N/A time=00:21:19.15 bitrate=N/A speed=18.5x    frame=30903 fps=444 q=-0.0 size=N/A time=00:21:28.91 bitrate=N/A speed=18.5x    frame=31149 fps=444 q=-0.0 size=N/A time=00:21:39.17 bitrate=N/A speed=18.5x    frame=31376 fps=444 q=-0.0 size=N/A time=00:21:48.64 bitrate=N/A speed=18.5x    frame=31623 fps=444 q=-0.0 size=N/A time=00:21:58.94 bitrate=N/A speed=18.5x    frame=31866 fps=444 q=-0.0 size=N/A time=00:22:09.07 bitrate=N/A speed=18.5x    frame=32093 fps=444 q=-0.0 size=N/A time=00:22:18.54 bitrate=N/A speed=18.5x    frame=32332 fps=444 q=-0.0 size=N/A time=00:22:28.51 bitrate=N/A speed=18.5x    frame=32572 fps=445 q=-0.0 size=N/A time=00:22:38.52 bitrate=N/A speed=18.5x    frame=32800 fps=445 q=-0.0 size=N/A time=00:22:48.03 bitrate=N/A speed=18.5x    frame=33006 fps=444 q=-0.0 size=N/A time=00:22:56.62 bitrate=N/A speed=18.5x    frame=33201 fps=444 q=-0.0 size=N/A time=00:23:04.75 bitrate=N/A speed=18.5x    frame=33389 fps=443 q=-0.0 size=N/A time=00:23:12.59 bitrate=N/A speed=18.5x    frame=33608 fps=443 q=-0.0 size=N/A time=00:23:21.73 bitrate=N/A speed=18.5x    frame=33812 fps=443 q=-0.0 size=N/A time=00:23:30.24 bitrate=N/A speed=18.5x    frame=34038 fps=443 q=-0.0 size=N/A time=00:23:39.66 bitrate=N/A speed=18.5x    frame=34268 fps=443 q=-0.0 size=N/A time=00:23:49.26 bitrate=N/A speed=18.5x    frame=34511 fps=443 q=-0.0 size=N/A time=00:23:59.39 bitrate=N/A speed=18.5x    frame=34751 fps=443 q=-0.0 size=N/A time=00:24:09.40 bitrate=N/A speed=18.5x    frame=34948 fps=443 q=-0.0 size=N/A time=00:24:17.62 bitrate=N/A speed=18.5x    frame=35122 fps=442 q=-0.0 size=N/A time=00:24:24.88 bitrate=N/A speed=18.4x    frame=35340 fps=442 q=-0.0 size=N/A time=00:24:33.97 bitrate=N/A speed=18.4x    frame=35566 fps=442 q=-0.0 size=N/A time=00:24:43.39 bitrate=N/A speed=18.4x    frame=35787 fps=442 q=-0.0 size=N/A time=00:24:52.61 bitrate=N/A speed=18.4x    frame=36039 fps=442 q=-0.0 size=N/A time=00:25:03.12 bitrate=N/A speed=18.4x    frame=36259 fps=442 q=-0.0 size=N/A time=00:25:12.30 bitrate=N/A speed=18.4x    frame=36507 fps=442 q=-0.0 size=N/A time=00:25:22.64 bitrate=N/A speed=18.4x    frame=36737 fps=442 q=-0.0 size=N/A time=00:25:32.23 bitrate=N/A speed=18.4x    frame=37015 fps=443 q=-0.0 size=N/A time=00:25:43.83 bitrate=N/A speed=18.5x    frame=37250 fps=443 q=-0.0 size=N/A time=00:25:53.63 bitrate=N/A speed=18.5x    frame=37494 fps=443 q=-0.0 size=N/A time=00:26:03.81 bitrate=N/A speed=18.5x    frame=37725 fps=443 q=-0.0 size=N/A time=00:26:13.44 bitrate=N/A speed=18.5x    frame=37951 fps=443 q=-0.0 size=N/A time=00:26:22.87 bitrate=N/A speed=18.5x    frame=38188 fps=443 q=-0.0 size=N/A time=00:26:32.75 bitrate=N/A speed=18.5x    frame=38415 fps=443 q=-0.0 size=N/A time=00:26:42.22 bitrate=N/A speed=18.5x    frame=38644 fps=443 q=-0.0 size=N/A time=00:26:51.77 bitrate=N/A speed=18.5x    frame=38854 fps=443 q=-0.0 size=N/A time=00:27:00.53 bitrate=N/A speed=18.5x    frame=39090 fps=443 q=-0.0 size=N/A time=00:27:10.37 bitrate=N/A speed=18.5x    frame=39327 fps=443 q=-0.0 size=N/A time=00:27:20.26 bitrate=N/A speed=18.5x    frame=39563 fps=443 q=-0.0 size=N/A time=00:27:30.10 bitrate=N/A speed=18.5x    frame=39804 fps=443 q=-0.0 size=N/A time=00:27:40.15 bitrate=N/A speed=18.5x    frame=40022 fps=443 q=-0.0 size=N/A time=00:27:49.25 bitrate=N/A speed=18.5x    frame=40243 fps=443 q=-0.0 size=N/A time=00:27:58.46 bitrate=N/A speed=18.5x    frame=40469 fps=443 q=-0.0 size=N/A time=00:28:07.89 bitrate=N/A speed=18.5x    frame=40678 fps=443 q=-0.0 size=N/A time=00:28:16.61 bitrate=N/A speed=18.5x    frame=40906 fps=443 q=-0.0 size=N/A time=00:28:26.12 bitrate=N/A speed=18.5x    frame=41154 fps=443 q=-0.0 size=N/A time=00:28:36.46 bitrate=N/A speed=18.5x    frame=41371 fps=443 q=-0.0 size=N/A time=00:28:45.51 bitrate=N/A speed=18.5x    frame=41617 fps=443 q=-0.0 size=N/A time=00:28:55.77 bitrate=N/A speed=18.5x    frame=41839 fps=443 q=-0.0 size=N/A time=00:29:05.03 bitrate=N/A speed=18.5x    frame=42068 fps=443 q=-0.0 size=N/A time=00:29:14.58 bitrate=N/A speed=18.5x    frame=42316 fps=443 q=-0.0 size=N/A time=00:29:24.92 bitrate=N/A speed=18.5x    frame=42577 fps=444 q=-0.0 size=N/A time=00:29:35.81 bitrate=N/A speed=18.5x    frame=42830 fps=444 q=-0.0 size=N/A time=00:29:46.36 bitrate=N/A speed=18.5x    frame=43066 fps=444 q=-0.0 size=N/A time=00:29:56.21 bitrate=N/A speed=18.5x    frame=43307 fps=444 q=-0.0 size=N/A time=00:30:06.26 bitrate=N/A speed=18.5x    frame=43565 fps=444 q=-0.0 size=N/A time=00:30:17.02 bitrate=N/A speed=18.5x    frame=43798 fps=444 q=-0.0 size=N/A time=00:30:26.74 bitrate=N/A speed=18.5x    frame=44028 fps=444 q=-0.0 size=N/A time=00:30:36.33 bitrate=N/A speed=18.5x    frame=44284 fps=445 q=-0.0 size=N/A time=00:30:47.01 bitrate=N/A speed=18.5x    frame=44491 fps=444 q=-0.0 size=N/A time=00:30:55.64 bitrate=N/A speed=18.5x    frame=44742 fps=445 q=-0.0 size=N/A time=00:31:06.11 bitrate=N/A speed=18.5x    frame=44953 fps=444 q=-0.0 size=N/A time=00:31:14.91 bitrate=N/A speed=18.5x    frame=45165 fps=444 q=-0.0 size=N/A time=00:31:23.75 bitrate=N/A speed=18.5x    frame=45387 fps=444 q=-0.0 size=N/A time=00:31:33.01 bitrate=N/A speed=18.5x    frame=45633 fps=444 q=-0.0 size=N/A time=00:31:43.27 bitrate=N/A speed=18.5x    frame=45862 fps=444 q=-0.0 size=N/A time=00:31:52.82 bitrate=N/A speed=18.5x    frame=46095 fps=444 q=-0.0 size=N/A time=00:32:02.54 bitrate=N/A speed=18.5x    frame=46329 fps=444 q=-0.0 size=N/A time=00:32:12.30 bitrate=N/A speed=18.5x    frame=46591 fps=445 q=-0.0 size=N/A time=00:32:23.23 bitrate=N/A speed=18.6x    frame=46863 fps=445 q=-0.0 size=N/A time=00:32:34.57 bitrate=N/A speed=18.6x    frame=47127 fps=445 q=-0.0 size=N/A time=00:32:45.58 bitrate=N/A speed=18.6x    frame=47382 fps=446 q=-0.0 size=N/A time=00:32:56.22 bitrate=N/A speed=18.6x    frame=47610 fps=446 q=-0.0 size=N/A time=00:33:05.73 bitrate=N/A speed=18.6x    frame=47833 fps=446 q=-0.0 size=N/A time=00:33:15.03 bitrate=N/A speed=18.6x    frame=48074 fps=446 q=-0.0 size=N/A time=00:33:25.08 bitrate=N/A speed=18.6x    frame=48309 fps=446 q=-0.0 size=N/A time=00:33:34.88 bitrate=N/A speed=18.6x    frame=48510 fps=445 q=-0.0 size=N/A time=00:33:43.27 bitrate=N/A speed=18.6x    frame=48696 fps=445 q=-0.0 size=N/A time=00:33:51.02 bitrate=N/A speed=18.6x    frame=48898 fps=445 q=-0.0 size=N/A time=00:33:59.45 bitrate=N/A speed=18.6x    frame=49086 fps=444 q=-0.0 size=N/A time=00:34:07.29 bitrate=N/A speed=18.5x    frame=49296 fps=444 q=-0.0 size=N/A time=00:34:16.05 bitrate=N/A speed=18.5x    frame=49508 fps=444 q=-0.0 size=N/A time=00:34:24.89 bitrate=N/A speed=18.5x    frame=49710 fps=444 q=-0.0 size=N/A time=00:34:33.32 bitrate=N/A speed=18.5x    frame=49890 fps=443 q=-0.0 size=N/A time=00:34:40.82 bitrate=N/A speed=18.5x    frame=50072 fps=443 q=-0.0 size=N/A time=00:34:48.41 bitrate=N/A speed=18.5x    frame=50219 fps=442 q=-0.0 size=N/A time=00:34:54.55 bitrate=N/A speed=18.4x    frame=50439 fps=442 q=-0.0 size=N/A time=00:35:03.72 bitrate=N/A speed=18.4x    frame=50720 fps=443 q=-0.0 size=N/A time=00:35:15.44 bitrate=N/A speed=18.5x    frame=50971 fps=443 q=-0.0 size=N/A time=00:35:25.91 bitrate=N/A speed=18.5x    frame=51207 fps=443 q=-0.0 size=N/A time=00:35:35.75 bitrate=N/A speed=18.5x    frame=51439 fps=443 q=-0.0 size=N/A time=00:35:45.43 bitrate=N/A speed=18.5x    frame=51657 fps=443 q=-0.0 size=N/A time=00:35:54.52 bitrate=N/A speed=18.5x    frame=51845 fps=443 q=-0.0 size=N/A time=00:36:02.36 bitrate=N/A speed=18.5x    frame=52044 fps=442 q=-0.0 size=N/A time=00:36:10.66 bitrate=N/A speed=18.4x    frame=52253 fps=442 q=-0.0 size=N/A time=00:36:19.38 bitrate=N/A speed=18.4x    frame=52489 fps=442 q=-0.0 size=N/A time=00:36:29.22 bitrate=N/A speed=18.4x    frame=52731 fps=442 q=-0.0 size=N/A time=00:36:39.32 bitrate=N/A speed=18.4x    frame=52971 fps=442 q=-0.0 size=N/A time=00:36:49.33 bitrate=N/A speed=18.5x    frame=53207 fps=442 q=-0.0 size=N/A time=00:36:59.17 bitrate=N/A speed=18.5x    frame=53399 fps=442 q=-0.0 size=N/A time=00:37:07.18 bitrate=N/A speed=18.4x    frame=53633 fps=442 q=-0.0 size=N/A time=00:37:16.94 bitrate=N/A speed=18.4x    frame=53871 fps=442 q=-0.0 size=N/A time=00:37:26.86 bitrate=N/A speed=18.4x    frame=54118 fps=442 q=-0.0 size=N/A time=00:37:37.17 bitrate=N/A speed=18.5x    frame=54359 fps=443 q=-0.0 size=N/A time=00:37:47.22 bitrate=N/A speed=18.5x    frame=54600 fps=443 q=-0.0 size=N/A time=00:37:57.27 bitrate=N/A speed=18.5x    frame=54844 fps=443 q=-0.0 size=N/A time=00:38:07.45 bitrate=N/A speed=18.5x    frame=55086 fps=443 q=-0.0 size=N/A time=00:38:17.54 bitrate=N/A speed=18.5x    frame=55326 fps=443 q=-0.0 size=N/A time=00:38:27.55 bitrate=N/A speed=18.5x    frame=55531 fps=443 q=-0.0 size=N/A time=00:38:36.10 bitrate=N/A speed=18.5x    frame=55764 fps=443 q=-0.0 size=N/A time=00:38:45.82 bitrate=N/A speed=18.5x    frame=56010 fps=443 q=-0.0 size=N/A time=00:38:56.08 bitrate=N/A speed=18.5x    frame=56268 fps=443 q=-0.0 size=N/A time=00:39:06.84 bitrate=N/A speed=18.5x    frame=56516 fps=443 q=-0.0 size=N/A time=00:39:17.18 bitrate=N/A speed=18.5x    frame=56779 fps=444 q=-0.0 size=N/A time=00:39:28.15 bitrate=N/A speed=18.5x    frame=57028 fps=444 q=-0.0 size=N/A time=00:39:38.54 bitrate=N/A speed=18.5x    frame=57275 fps=444 q=-0.0 size=N/A time=00:39:48.84 bitrate=N/A speed=18.5x    frame=57534 fps=444 q=-0.0 size=N/A time=00:39:59.64 bitrate=N/A speed=18.5x    frame=57804 fps=444 q=-0.0 size=N/A time=00:40:10.90 bitrate=N/A speed=18.5x    frame=58081 fps=445 q=-0.0 size=N/A time=00:40:22.46 bitrate=N/A speed=18.6x    frame=58333 fps=445 q=-0.0 size=N/A time=00:40:32.97 bitrate=N/A speed=18.6x    frame=58587 fps=445 q=-0.0 size=N/A time=00:40:43.56 bitrate=N/A speed=18.6x    frame=58810 fps=445 q=-0.0 size=N/A time=00:40:52.86 bitrate=N/A speed=18.6x    frame=59009 fps=445 q=-0.0 size=N/A time=00:41:01.16 bitrate=N/A speed=18.6x    frame=59193 fps=445 q=-0.0 size=N/A time=00:41:08.84 bitrate=N/A speed=18.5x    frame=59395 fps=444 q=-0.0 size=N/A time=00:41:17.26 bitrate=N/A speed=18.5x    frame=59619 fps=444 q=-0.0 size=N/A time=00:41:26.60 bitrate=N/A speed=18.5x    frame=59808 fps=444 q=-0.0 size=N/A time=00:41:34.49 bitrate=N/A speed=18.5x    frame=60045 fps=444 q=-0.0 size=N/A time=00:41:44.37 bitrate=N/A speed=18.5x    frame=60302 fps=444 q=-0.0 size=N/A time=00:41:55.09 bitrate=N/A speed=18.5x    frame=60538 fps=444 q=-0.0 size=N/A time=00:42:04.93 bitrate=N/A speed=18.5x    frame=60745 fps=444 q=-0.0 size=N/A time=00:42:13.57 bitrate=N/A speed=18.5x    frame=60992 fps=444 q=-0.0 size=N/A time=00:42:23.87 bitrate=N/A speed=18.5x    frame=61234 fps=444 q=-0.0 size=N/A time=00:42:33.96 bitrate=N/A speed=18.5x    frame=61488 fps=445 q=-0.0 size=N/A time=00:42:44.56 bitrate=N/A speed=18.5x    frame=61732 fps=445 q=-0.0 size=N/A time=00:42:54.73 bitrate=N/A speed=18.5x    frame=62000 fps=445 q=-0.0 size=N/A time=00:43:05.91 bitrate=N/A speed=18.6x    frame=62247 fps=445 q=-0.0 size=N/A time=00:43:16.21 bitrate=N/A speed=18.6x    frame=62497 fps=445 q=-0.0 size=N/A time=00:43:26.64 bitrate=N/A speed=18.6x    frame=62744 fps=445 q=-0.0 size=N/A time=00:43:36.94 bitrate=N/A speed=18.6x    frame=63024 fps=446 q=-0.0 size=N/A time=00:43:48.62 bitrate=N/A speed=18.6x    frame=63262 fps=446 q=-0.0 size=N/A time=00:43:58.55 bitrate=N/A speed=18.6x    frame=63502 fps=446 q=-0.0 size=N/A time=00:44:08.56 bitrate=N/A speed=18.6x    frame=63748 fps=446 q=-0.0 size=N/A time=00:44:18.82 bitrate=N/A speed=18.6x    frame=63973 fps=446 q=-0.0 size=N/A time=00:44:28.20 bitrate=N/A speed=18.6x    frame=64222 fps=446 q=-0.0 size=N/A time=00:44:38.59 bitrate=N/A speed=18.6x    frame=64460 fps=446 q=-0.0 size=N/A time=00:44:48.51 bitrate=N/A speed=18.6x    frame=64700 fps=446 q=-0.0 size=N/A time=00:44:58.52 bitrate=N/A speed=18.6x    frame=64964 fps=446 q=-0.0 size=N/A time=00:45:09.54 bitrate=N/A speed=18.6x    frame=65216 fps=447 q=-0.0 size=N/A time=00:45:20.05 bitrate=N/A speed=18.6x    frame=65409 fps=446 q=-0.0 size=N/A time=00:45:28.10 bitrate=N/A speed=18.6x    frame=65620 fps=446 q=-0.0 size=N/A time=00:45:36.90 bitrate=N/A speed=18.6x    frame=65874 fps=446 q=-0.0 size=N/A time=00:45:47.49 bitrate=N/A speed=18.6x    frame=66088 fps=446 q=-0.0 size=N/A time=00:45:56.42 bitrate=N/A speed=18.6x    frame=66309 fps=446 q=-0.0 size=N/A time=00:46:05.63 bitrate=N/A speed=18.6x    frame=66553 fps=446 q=-0.0 size=N/A time=00:46:15.81 bitrate=N/A speed=18.6x    frame=66802 fps=446 q=-0.0 size=N/A time=00:46:26.20 bitrate=N/A speed=18.6x    frame=67068 fps=447 q=-0.0 size=N/A time=00:46:37.29 bitrate=N/A speed=18.6x    frame=67325 fps=447 q=-0.0 size=N/A time=00:46:48.01 bitrate=N/A speed=18.6x    frame=67586 fps=447 q=-0.0 size=N/A time=00:46:58.89 bitrate=N/A speed=18.6x    frame=67824 fps=447 q=-0.0 size=N/A time=00:47:08.82 bitrate=N/A speed=18.6x    frame=68071 fps=447 q=-0.0 size=N/A time=00:47:19.12 bitrate=N/A speed=18.7x    frame=68328 fps=447 q=-0.0 size=N/A time=00:47:29.84 bitrate=N/A speed=18.7x    frame=68615 fps=448 q=-0.0 size=N/A time=00:47:41.81 bitrate=N/A speed=18.7x    frame=68881 fps=448 q=-0.0 size=N/A time=00:47:52.91 bitrate=N/A speed=18.7x    frame=69108 fps=448 q=-0.0 size=N/A time=00:48:02.37 bitrate=N/A speed=18.7x    frame=69306 fps=448 q=-0.0 size=N/A time=00:48:10.63 bitrate=N/A speed=18.7x    frame=69554 fps=448 q=-0.0 size=N/A time=00:48:20.98 bitrate=N/A speed=18.7x    frame=69793 fps=448 q=-0.0 size=N/A time=00:48:30.94 bitrate=N/A speed=18.7x    frame=70036 fps=448 q=-0.0 size=N/A time=00:48:41.08 bitrate=N/A speed=18.7x    frame=70237 fps=448 q=-0.0 size=N/A time=00:48:49.46 bitrate=N/A speed=18.7x    frame=70428 fps=448 q=-0.0 size=N/A time=00:48:57.43 bitrate=N/A speed=18.7x    frame=70577 fps=447 q=-0.0 size=N/A time=00:49:03.64 bitrate=N/A speed=18.6x    frame=70818 fps=447 q=-0.0 size=N/A time=00:49:13.70 bitrate=N/A speed=18.6x    frame=71066 fps=447 q=-0.0 size=N/A time=00:49:24.04 bitrate=N/A speed=18.7x    frame=71313 fps=447 q=-0.0 size=N/A time=00:49:34.34 bitrate=N/A speed=18.7x    frame=71560 fps=447 q=-0.0 size=N/A time=00:49:44.64 bitrate=N/A speed=18.7x    frame=71778 fps=447 q=-0.0 size=N/A time=00:49:53.74 bitrate=N/A speed=18.7x    frame=71973 fps=447 q=-0.0 size=N/A time=00:50:01.87 bitrate=N/A speed=18.6x    frame=72167 fps=447 q=-0.0 size=N/A time=00:50:09.96 bitrate=N/A speed=18.6x    frame=72357 fps=447 q=-0.0 size=N/A time=00:50:17.88 bitrate=N/A speed=18.6x    frame=72591 fps=447 q=-0.0 size=N/A time=00:50:27.64 bitrate=N/A speed=18.6x    frame=72830 fps=447 q=-0.0 size=N/A time=00:50:37.61 bitrate=N/A speed=18.6x    frame=73063 fps=447 q=-0.0 size=N/A time=00:50:47.33 bitrate=N/A speed=18.6x    frame=73306 fps=447 q=-0.0 size=N/A time=00:50:57.47 bitrate=N/A speed=18.6x    frame=73531 fps=447 q=-0.0 size=N/A time=00:51:06.85 bitrate=N/A speed=18.6x    frame=73761 fps=447 q=-0.0 size=N/A time=00:51:16.44 bitrate=N/A speed=18.6x    frame=73974 fps=447 q=-0.0 size=N/A time=00:51:25.33 bitrate=N/A speed=18.6x    frame=74187 fps=447 q=-0.0 size=N/A time=00:51:34.21 bitrate=N/A speed=18.6x    frame=74405 fps=446 q=-0.0 size=N/A time=00:51:43.30 bitrate=N/A speed=18.6x    frame=74657 fps=447 q=-0.0 size=N/A time=00:51:53.81 bitrate=N/A speed=18.6x    frame=74902 fps=447 q=-0.0 size=N/A time=00:52:04.03 bitrate=N/A speed=18.6x    frame=75145 fps=447 q=-0.0 size=N/A time=00:52:14.17 bitrate=N/A speed=18.6x    frame=75397 fps=447 q=-0.0 size=N/A time=00:52:24.68 bitrate=N/A speed=18.6x    frame=75660 fps=447 q=-0.0 size=N/A time=00:52:35.65 bitrate=N/A speed=18.6x    frame=75924 fps=447 q=-0.0 size=N/A time=00:52:46.66 bitrate=N/A speed=18.7x    frame=76203 fps=448 q=-0.0 size=N/A time=00:52:58.30 bitrate=N/A speed=18.7x    frame=76465 fps=448 q=-0.0 size=N/A time=00:53:09.22 bitrate=N/A speed=18.7x    frame=76711 fps=448 q=-0.0 size=N/A time=00:53:19.48 bitrate=N/A speed=18.7x    frame=76974 fps=448 q=-0.0 size=N/A time=00:53:30.45 bitrate=N/A speed=18.7x    frame=77225 fps=448 q=-0.0 size=N/A time=00:53:40.92 bitrate=N/A speed=18.7x    frame=77442 fps=448 q=-0.0 size=N/A time=00:53:49.97 bitrate=N/A speed=18.7x    frame=77684 fps=448 q=-0.0 size=N/A time=00:54:00.07 bitrate=N/A speed=18.7x    frame=77936 fps=448 q=-0.0 size=N/A time=00:54:10.58 bitrate=N/A speed=18.7x    frame=78163 fps=448 q=-0.0 size=N/A time=00:54:20.04 bitrate=N/A speed=18.7x    frame=78414 fps=448 q=-0.0 size=N/A time=00:54:30.51 bitrate=N/A speed=18.7x    frame=78664 fps=448 q=-0.0 size=N/A time=00:54:40.94 bitrate=N/A speed=18.7x    frame=78899 fps=448 q=-0.0 size=N/A time=00:54:50.74 bitrate=N/A speed=18.7x    frame=79152 fps=449 q=-0.0 size=N/A time=00:55:01.29 bitrate=N/A speed=18.7x    frame=79411 fps=449 q=-0.0 size=N/A time=00:55:12.10 bitrate=N/A speed=18.7x    frame=79663 fps=449 q=-0.0 size=N/A time=00:55:22.61 bitrate=N/A speed=18.7x    frame=79930 fps=449 q=-0.0 size=N/A time=00:55:33.74 bitrate=N/A speed=18.7x    frame=80208 fps=449 q=-0.0 size=N/A time=00:55:45.34 bitrate=N/A speed=18.7x    frame=80490 fps=450 q=-0.0 size=N/A time=00:55:57.10 bitrate=N/A speed=18.7x    frame=80761 fps=450 q=-0.0 size=N/A time=00:56:08.40 bitrate=N/A speed=18.8x    frame=81025 fps=450 q=-0.0 size=N/A time=00:56:19.41 bitrate=N/A speed=18.8x    frame=81301 fps=450 q=-0.0 size=N/A time=00:56:30.92 bitrate=N/A speed=18.8x    frame=81561 fps=450 q=-0.0 size=N/A time=00:56:41.77 bitrate=N/A speed=18.8x    frame=81815 fps=450 q=-0.0 size=N/A time=00:56:52.36 bitrate=N/A speed=18.8x    frame=82080 fps=451 q=-0.0 size=N/A time=00:57:03.42 bitrate=N/A speed=18.8x    frame=82341 fps=451 q=-0.0 size=N/A time=00:57:14.30 bitrate=N/A speed=18.8x    frame=82604 fps=451 q=-0.0 size=N/A time=00:57:25.27 bitrate=N/A speed=18.8x    frame=82877 fps=451 q=-0.0 size=N/A time=00:57:36.66 bitrate=N/A speed=18.8x    frame=83143 fps=451 q=-0.0 size=N/A time=00:57:47.75 bitrate=N/A speed=18.8x    frame=83409 fps=452 q=-0.0 size=N/A time=00:57:58.85 bitrate=N/A speed=18.8x    frame=83682 fps=452 q=-0.0 size=N/A time=00:58:10.23 bitrate=N/A speed=18.8x    frame=83951 fps=452 q=-0.0 size=N/A time=00:58:21.45 bitrate=N/A speed=18.9x    frame=84216 fps=452 q=-0.0 size=N/A time=00:58:32.50 bitrate=N/A speed=18.9x    frame=84487 fps=452 q=-0.0 size=N/A time=00:58:43.81 bitrate=N/A speed=18.9x    frame=84756 fps=453 q=-0.0 size=N/A time=00:58:55.03 bitrate=N/A speed=18.9x    frame=85022 fps=453 q=-0.0 size=N/A time=00:59:06.16 bitrate=N/A speed=18.9x    frame=85299 fps=453 q=-0.0 size=N/A time=00:59:17.67 bitrate=N/A speed=18.9x    frame=85567 fps=453 q=-0.0 size=N/A time=00:59:28.85 bitrate=N/A speed=18.9x    frame=85845 fps=453 q=-0.0 size=N/A time=00:59:40.45 bitrate=N/A speed=18.9x    frame=86137 fps=454 q=-0.0 size=N/A time=00:59:52.63 bitrate=N/A speed=18.9x    frame=86431 fps=454 q=-0.0 size=N/A time=01:00:04.89 bitrate=N/A speed=18.9x    [Parsed_ssim_10 @ 000001e830cf6dc0] SSIM Y:0.995419 (23.390369) U:0.996732 (24.857822) V:0.996808 (24.960013) All:0.995869 (23.839945)
[out#0/null @ 000001e818b0ab40] video:37156KiB audio:676244KiB subtitle:0KiB other streams:0KiB global headers:0KiB muxing overhead: unknown
frame=86472 fps=454 q=-0.0 Lsize=N/A time=01:00:06.60 bitrate=N/A speed=18.9x    
